<svg width="30" height="28" viewBox="0 0 30 28" fill="none" xmlns="http://www.w3.org/2000/svg">
<path d="M0 18C0 16.3431 1.34315 15 3 15H6C7.65685 15 9 16.3431 9 18V28H0V18Z" fill="#006400"/>
<path d="M21 21C21 19.3431 22.3431 18 24 18H27C28.6569 18 30 19.3431 30 21V28H21V21Z" fill="#006400"/>
<path d="M10 14C10 12.3431 11.3431 11 13 11H17C18.6569 11 20 12.3431 20 14V28H10V14Z" fill="#006400"/>
<path fill-rule="evenodd" clip-rule="evenodd" d="M15.7191 0.318591L16.6328 2.03659C16.7224 2.20525 16.8952 2.3222 17.0957 2.34926L19.1397 2.62617C19.6447 2.6948 19.8456 3.27084 19.4802 3.60091L18.0021 4.93762C17.8568 5.06907 17.7907 5.25802 17.8251 5.4436L18.1739 7.33074C18.2598 7.79757 17.7319 8.15373 17.2805 7.93288L15.4536 7.04126C15.2745 6.95379 15.06 6.95379 14.8804 7.04126L13.0535 7.93288C12.6021 8.15373 12.0742 7.79757 12.1606 7.33074L12.5089 5.4436C12.5433 5.25802 12.4772 5.06907 12.3319 4.93762L10.8538 3.60091C10.4883 3.27084 10.6893 2.6948 11.1943 2.62617L13.2383 2.34926C13.4388 2.3222 13.6121 2.20525 13.7017 2.03659L14.6149 0.318591C14.8408 -0.106197 15.4932 -0.106197 15.7191 0.318591Z" fill="#006400"/>
</svg>
