<svg width="25" height="24" viewBox="0 0 25 24" fill="none" xmlns="http://www.w3.org/2000/svg">
<path fill-rule="evenodd" clip-rule="evenodd" d="M17.5131 4.41C17.5131 3.08 18.5931 2 19.9231 2C21.2531 2 22.3331 3.08 22.3331 4.41C22.3331 5.74 21.2531 6.82 19.9231 6.82C18.5931 6.82 17.5131 5.74 17.5131 4.41ZM13.663 14.7593L16.553 11.0303L16.513 11.0503C16.673 10.8303 16.703 10.5503 16.593 10.3003C16.484 10.0503 16.243 9.8803 15.984 9.8603C15.713 9.8303 15.444 9.9503 15.283 10.1703L12.864 13.3003L10.093 11.1203C9.92301 10.9903 9.72301 10.9393 9.52301 10.9603C9.32401 10.9903 9.14401 11.0993 9.02301 11.2593L6.06401 15.1103L6.00301 15.2003C5.83301 15.5193 5.91301 15.9293 6.21301 16.1503C6.35301 16.2403 6.50301 16.3003 6.67301 16.3003C6.90401 16.3103 7.12301 16.1893 7.26301 16.0003L9.77301 12.7693L12.623 14.9103L12.713 14.9693C13.033 15.1393 13.433 15.0603 13.663 14.7593ZM15.783 3.7803C15.743 4.0303 15.723 4.2803 15.723 4.5303C15.723 6.7803 17.543 8.5993 19.783 8.5993C20.033 8.5993 20.273 8.5703 20.523 8.5303V16.5993C20.523 19.9903 18.523 22.0003 15.123 22.0003H7.73401C4.33301 22.0003 2.33301 19.9903 2.33301 16.5993V9.2003C2.33301 5.8003 4.33301 3.7803 7.73401 3.7803H15.783Z" fill="#32CD32"/>
</svg>
