<svg width="33" height="30" viewBox="0 0 33 30" fill="none" xmlns="http://www.w3.org/2000/svg">
<path d="M3.3335 16.9H8.3335C9.63137 16.9 10.6835 17.9521 10.6835 19.25V28.6H0.983496V19.25C0.983496 17.9521 2.03563 16.9 3.3335 16.9Z" stroke="#9E9E9E" stroke-width="1.3"/>
<path d="M24.3335 19.9H29.3335C30.6314 19.9 31.6835 20.9521 31.6835 22.25V28.6H21.9835V22.25C21.9835 20.9521 23.0356 19.9 24.3335 19.9Z" stroke="#9E9E9E" stroke-width="1.3"/>
<path d="M13.3335 12.9H19.3335C20.6314 12.9 21.6835 13.9521 21.6835 15.25V28.6H10.9835V15.25C10.9835 13.9521 12.0356 12.9 13.3335 12.9Z" stroke="#9E9E9E" stroke-width="1.3"/>
<path fill-rule="evenodd" clip-rule="evenodd" d="M16.8856 1.3385L17.7993 3.16388C17.8889 3.34308 18.0617 3.46734 18.2622 3.49609L20.3062 3.79031C20.8112 3.86322 21.0121 4.47527 20.6467 4.82597L19.1686 6.24622C19.0233 6.38588 18.9572 6.58665 18.9916 6.78382L19.3404 8.78891C19.4263 9.28492 18.8984 9.66334 18.447 9.42869L16.6201 8.48134C16.441 8.3884 16.2265 8.3884 16.0469 8.48134L14.22 9.42869C13.7686 9.66334 13.2407 9.28492 13.3271 8.78891L13.6754 6.78382C13.7098 6.58665 13.6437 6.38588 13.4984 6.24622L12.0203 4.82597C11.6549 4.47527 11.8558 3.86322 12.3608 3.79031L14.4048 3.49609C14.6053 3.46734 14.7786 3.34308 14.8682 3.16388L15.7814 1.3385C16.0073 0.887166 16.6597 0.887166 16.8856 1.3385Z" stroke="#9E9E9E" stroke-width="1.3" stroke-linecap="round" stroke-linejoin="round"/>
</svg>
