<svg width="31" height="28" viewBox="0 0 31 28" fill="none" xmlns="http://www.w3.org/2000/svg">
<path d="M0.333496 18C0.333496 16.3431 1.67664 15 3.3335 15H6.3335C7.99035 15 9.3335 16.3431 9.3335 18V28H0.333496V18Z" fill="#32CD32"/>
<path d="M21.3335 21C21.3335 19.3431 22.6766 18 24.3335 18H27.3335C28.9904 18 30.3335 19.3431 30.3335 21V28H21.3335V21Z" fill="#32CD32"/>
<path d="M10.3335 14C10.3335 12.3431 11.6766 11 13.3335 11H17.3335C18.9904 11 20.3335 12.3431 20.3335 14V28H10.3335V14Z" fill="#32CD32"/>
<path fill-rule="evenodd" clip-rule="evenodd" d="M16.0526 0.318591L16.9663 2.03659C17.0559 2.20525 17.2287 2.3222 17.4292 2.34926L19.4732 2.62617C19.9782 2.6948 20.1791 3.27084 19.8136 3.60091L18.3356 4.93762C18.1903 5.06907 18.1242 5.25802 18.1586 5.4436L18.5074 7.33074C18.5933 7.79757 18.0654 8.15373 17.614 7.93288L15.7871 7.04126C15.608 6.95379 15.3935 6.95379 15.2139 7.04126L13.387 7.93288C12.9356 8.15373 12.4077 7.79757 12.4941 7.33074L12.8424 5.4436C12.8768 5.25802 12.8107 5.06907 12.6654 4.93762L11.1873 3.60091C10.8218 3.27084 11.0228 2.6948 11.5278 2.62617L13.5718 2.34926C13.7723 2.3222 13.9456 2.20525 14.0352 2.03659L14.9484 0.318591C15.1743 -0.106197 15.8267 -0.106197 16.0526 0.318591Z" fill="#32CD32"/>
</svg>
