<svg width="25" height="24" viewBox="0 0 25 24" fill="none" xmlns="http://www.w3.org/2000/svg">
<path d="M9.49071 20.7714V17.7047C9.49069 16.9246 10.1266 16.2908 10.9145 16.2856H13.8006C14.5922 16.2856 15.234 16.9209 15.234 17.7047V17.7047V20.7809C15.2338 21.4432 15.7678 21.9845 16.4365 22H18.3606C20.2786 22 21.8335 20.4607 21.8335 18.5618V18.5618V9.83784C21.8233 9.09083 21.469 8.38935 20.8715 7.93303L14.2912 2.6853C13.1384 1.77157 11.4997 1.77157 10.3469 2.6853L3.79552 7.94256C3.19575 8.39702 2.84088 9.09967 2.8335 9.84736V18.5618C2.8335 20.4607 4.38837 22 6.30641 22H8.23046C8.91585 22 9.47147 21.4499 9.47147 20.7714V20.7714" stroke="#9E9E9E" stroke-width="1.5" stroke-linecap="round" stroke-linejoin="round"/>
</svg>
