<svg width="25" height="24" viewBox="0 0 25 24" fill="none" xmlns="http://www.w3.org/2000/svg">
<path d="M9.46827 20.7733V17.7156C9.46827 16.9351 10.1057 16.3023 10.8919 16.3023H13.7661C14.1437 16.3023 14.5058 16.4512 14.7728 16.7163C15.0398 16.9813 15.1898 17.3408 15.1898 17.7156V20.7733C15.1874 21.0978 15.3156 21.4099 15.5459 21.6402C15.7762 21.8705 16.0895 22 16.4164 22H18.3773C19.2931 22.0024 20.1722 21.6428 20.8207 21.0008C21.4691 20.3588 21.8335 19.487 21.8335 18.5778V9.86686C21.8335 9.13246 21.5056 8.43584 20.9381 7.96467L14.2675 2.67587C13.1072 1.74856 11.4446 1.7785 10.3189 2.74698L3.80051 7.96467C3.20624 8.42195 2.85105 9.12064 2.8335 9.86686V18.5689C2.8335 20.4639 4.38088 22 6.28967 22H8.20579C8.88472 22 9.43649 21.4562 9.44141 20.7822L9.46827 20.7733Z" fill="#32CD32"/>
</svg>
