<svg width="25" height="24" viewBox="0 0 25 24" fill="none" xmlns="http://www.w3.org/2000/svg">
<mask id="mask0_378_8523" style="mask-type:luminance" maskUnits="userSpaceOnUse" x="4" y="14" width="17" height="8">
<path fill-rule="evenodd" clip-rule="evenodd" d="M4.3335 14.4961H20.1734V21.8701H4.3335V14.4961Z" fill="white"/>
</mask>
<g mask="url(#mask0_378_8523)">
<path fill-rule="evenodd" clip-rule="evenodd" d="M12.2545 15.9961C7.9935 15.9961 5.8335 16.7281 5.8335 18.1731C5.8335 19.6311 7.9935 20.3701 12.2545 20.3701C16.5145 20.3701 18.6735 19.6381 18.6735 18.1931C18.6735 16.7351 16.5145 15.9961 12.2545 15.9961M12.2545 21.8701C10.2955 21.8701 4.3335 21.8701 4.3335 18.1731C4.3335 14.8771 8.8545 14.4961 12.2545 14.4961C14.2135 14.4961 20.1735 14.4961 20.1735 18.1931C20.1735 21.4891 15.6535 21.8701 12.2545 21.8701" fill="#9E9E9E"/>
</g>
<mask id="mask1_378_8523" style="mask-type:luminance" maskUnits="userSpaceOnUse" x="6" y="2" width="12" height="11">
<path fill-rule="evenodd" clip-rule="evenodd" d="M6.94336 2.0001H17.5634V12.6187H6.94336V2.0001Z" fill="white"/>
</mask>
<g mask="url(#mask1_378_8523)">
<path fill-rule="evenodd" clip-rule="evenodd" d="M12.2544 3.4277C10.1134 3.4277 8.37139 5.1687 8.37139 7.3097C8.36439 9.4437 10.0934 11.1837 12.2254 11.1917L12.2544 11.9057V11.1917C14.3944 11.1917 16.1354 9.4497 16.1354 7.3097C16.1354 5.1687 14.3944 3.4277 12.2544 3.4277M12.2544 12.6187H12.2224C9.30039 12.6097 6.93339 10.2267 6.94339 7.3067C6.94339 4.3817 9.32539 1.9997 12.2544 1.9997C15.1824 1.9997 17.5634 4.3817 17.5634 7.3097C17.5634 10.2377 15.1824 12.6187 12.2544 12.6187" fill="#9E9E9E"/>
</g>
</svg>
